<svg xmlns="http://www.w3.org/2000/svg" version="1.1" xmlns:xlink="http://www.w3.org/1999/xlink" xmlns:svgjs="http://svgjs.dev/svgjs" width="1000" height="1000" viewBox="0 0 1000 1000"><rect width="1000" height="1000" fill="#ffffff"></rect><g transform="matrix(0.7,0,0,0.7,150.57094085520407,35.92611062663525)"><svg viewBox="0 0 186 247" data-background-color="#dedede" preserveAspectRatio="xMidYMid meet" height="1327" width="1000" xmlns="http://www.w3.org/2000/svg" xmlns:xlink="http://www.w3.org/1999/xlink"><g id="tight-bounds" transform="matrix(1,0,0,1,-0.15170714152566234,-0.10000250962937685)"><svg viewBox="0 0 186.30341093665402 247.2" height="247.2" width="186.30341093665402"><g><svg viewBox="0 0 186.30341093665402 247.2" height="247.2" width="186.30341093665402"><g><svg viewBox="0 0 186.30341093665402 247.2" height="247.2" width="186.30341093665402"><g id="textblocktransform"><svg viewBox="0 0 186.30341093665402 247.2" height="247.2" width="186.30341093665402" id="textblock"><g><svg viewBox="0 0 186.30341093665402 247.2" height="247.2" width="186.30341093665402"><g transform="matrix(1,0,0,1,0,0)"><svg width="186.30341093665402" viewBox="4.909999847412109 -35.689998626708984 33.97999954223633 45.089996337890625" height="247.2" data-palette-color="#374151"><path d="M27.54-25.29L27.54-25.29Q27.54-19.87 23.84-16.96 20.14-14.04 13.26-14.04L13.26-14.04 9.06-14.04 9.06 0 4.91 0 4.91-35.69 14.16-35.69Q27.54-35.69 27.54-25.29ZM9.06-32.1L9.06-17.6 12.79-17.6Q18.31-17.6 20.78-19.38 23.24-21.17 23.24-25.1L23.24-25.1Q23.24-28.64 20.92-30.37 18.6-32.1 13.7-32.1L13.7-32.1 9.06-32.1ZM29.81 9.4L29.81 9.4Q27.51 9.4 26.19 8.74L26.19 8.74 26.19 5.2Q27.93 5.69 29.81 5.69L29.81 5.69Q32.22 5.69 33.48 4.22 34.74 2.76 34.74 0L34.74 0 34.74-35.69 38.89-35.69 38.89-0.34Q38.89 4.3 36.55 6.85 34.2 9.4 29.81 9.4Z" opacity="1" transform="matrix(1,0,0,1,0,0)" fill="#000000" class="wordmark-text-0" data-fill-palette-color="primary" id="text-0"></path></svg></g></svg></g></svg></g></svg></g><g></g></svg></g><defs></defs></svg><rect width="186.30341093665402" height="247.2" fill="none" stroke="none" visibility="hidden"></rect></g></svg></g></svg>